<?xml version="1.0" encoding="UTF-8" standalone="no"?>
<!-- Created with Inkscape (http://www.inkscape.org/) -->

<svg
   width="1024"
   height="1024"
   viewBox="0 0 270.93333 270.93334"
   version="1.1"
   id="svg5"
   sodipodi:docname="pizza_icon.svg"
   inkscape:version="1.1.1 (3bf5ae0d25, 2021-09-20)"
   xmlns:inkscape="http://www.inkscape.org/namespaces/inkscape"
   xmlns:sodipodi="http://sodipodi.sourceforge.net/DTD/sodipodi-0.dtd"
   xmlns="http://www.w3.org/2000/svg"
   xmlns:svg="http://www.w3.org/2000/svg">
  <sodipodi:namedview
     id="namedview7"
     pagecolor="#383d59"
     bordercolor="#eeeeee"
     borderopacity="1"
     inkscape:pageshadow="0"
     inkscape:pageopacity="0"
     inkscape:pagecheckerboard="false"
     inkscape:document-units="px"
     showgrid="false"
     units="px"
     width="1024px"
     showguides="true"
     inkscape:guide-bbox="true"
     inkscape:zoom="0.25577717"
     inkscape:cx="170.06991"
     inkscape:cy="428.10701"
     inkscape:window-width="1920"
     inkscape:window-height="1057"
     inkscape:window-x="-8"
     inkscape:window-y="-8"
     inkscape:window-maximized="1"
     inkscape:current-layer="g841">
    <sodipodi:guide
       position="9.4316971,131.24444"
       orientation="-0.88295463,0.46945832"
       id="guide5295" />
    <sodipodi:guide
       position="75.522854,146.52431"
       orientation="-0.99302228,0.11792685"
       id="guide2199" />
  </sodipodi:namedview>
  <defs
     id="defs2" />
  <g
     inkscape:groupmode="layer"
     id="layer2"
     inkscape:label="Helpers"
     style="display:none">
    <path
       d="m 105.77542,57.694107 c -1.1e-4,0.964087 -0.17348,1.920334 -0.51195,2.823075 -18.053455,48.321628 -18.079435,101.532418 -0.0731,149.871648 3.76287,10.14105 -11.449524,15.7872 -15.212373,5.64615 -19.352688,-51.98385 -19.321538,-109.20121 0.0878,-161.163949 3.127662,-8.511513 15.741093,-6.244862 15.709703,2.823076 z"
       id="path832-8-6"
       sodipodi:nodetypes="cccccc"
       style="fill:#ffffff;fill-opacity:1;stroke-width:14.6273" />
  </g>
  <g
     inkscape:label="Ebene 1"
     inkscape:groupmode="layer"
     id="layer1"
     style="display:inline">
    <g
       style="fill:#000000"
       id="g841"
       transform="matrix(0,-14.627333,14.627333,0,-27.867834,234.66819)">
      <path
         id="path832"
         style="opacity:1;fill:#f9b17a;fill-opacity:1;stroke-width:55.2844"
         transform="matrix(0,0.01808828,-0.01808828,0,16.043129,1.905189)"
         d="m 428.86719,187.28906 c -11.68239,-0.0271 -23.38155,6.27483 -28.46094,20.09766 -73.35811,196.3946 -73.47619,412.64865 -0.33203,609.12305 14.22186,38.32837 71.71795,16.98853 57.49609,-21.33985 -68.05556,-182.69945 -67.95645,-383.81043 0.27735,-566.44336 1.27928,-3.41193 1.93315,-7.02612 1.93359,-10.66992 0.0677,-19.54604 -15.40835,-30.73155 -30.91406,-30.76758 z m 106.10547,39.08789 c -10.3618,-0.12643 -20.21804,6.07923 -24.21875,16.33594 l -0.11133,0.0566 c 0,0 -6.63361,17.19342 -13.4336,38.5332 -46.78664,147.38521 -47.74992,305.49674 -2.76367,453.44141 7.29754,23.7723 16.03321,46.43945 16.03321,46.43945 5.15582,13.46401 20.40829,20.01527 33.72265,14.48438 L 978.35938,522.39648 c 13.32354,-5.52844 13.32354,-14.53991 0,-20.06836 L 544.47656,228.33984 c -3.11321,-1.2908 -6.33192,-1.92418 -9.5039,-1.96289 z M 163.61133,283.8418 c -15.99694,0 -28.875,12.87806 -28.875,28.875 0,15.99693 12.87806,28.875 28.875,28.875 h 115.08594 c 15.99693,0 28.875,-12.87807 28.875,-28.875 0,-15.99694 -12.87807,-28.875 -28.875,-28.875 z m 455.60937,55.59179 c 38.22458,0 69.21289,30.98836 69.21289,69.21289 0,61.66528 -74.55172,92.53615 -118.15039,48.9375 -43.59866,-43.59865 -12.72772,-118.15039 48.9375,-118.15039 z m 148.90039,109.18164 c 38.22458,0 69.21289,30.9864 69.21289,69.21094 0,61.66527 -74.54977,92.53615 -118.14843,48.9375 -43.59867,-43.59865 -12.72968,-118.14844 48.93554,-118.14844 z m -703.597652,21.5918 c -15.996935,0 -28.876954,12.87807 -28.876954,28.875 0,15.99694 12.880019,28.87695 28.876954,28.87695 H 256.56445 c 15.99694,0 28.87696,-12.88001 28.87696,-28.87695 0,-15.99693 -12.88002,-28.875 -28.87696,-28.875 z m 520.246092,98.59375 c 38.22458,0 69.21094,30.9864 69.21094,69.21094 0,61.66528 -74.54977,92.53615 -118.14844,48.9375 -43.59872,-43.59865 -12.72772,-118.14844 48.9375,-118.14844 z m -421.1582,87.77344 c -15.99694,0 -28.875,12.87806 -28.875,28.875 0,15.99693 12.87806,28.875 28.875,28.875 h 115.08594 c 15.99693,0 28.875,-12.87807 28.875,-28.875 0,-15.99694 -12.87807,-28.875 -28.875,-28.875 z" />
    </g>
  </g>
</svg>
